# xmcd
#
# Track frame offsets:
#	150
#	7477
#	20935
#	34150
#	41717
#	49642
#	62945
#	73307
#	80475
#	91025
#	103627
#	110792
#	120412
#	140267
#	151385
#
# Disc length: 2131 seconds
#
# Revision: 1
# Processed by: cddbd v1.5.1PL0 Copyright (c) Steve Scherf et al.
# Submitted via: CDex 1.50Beta5
#
DISCID=d508510f
DTITLE=井上堯之バンド - 前略おふくろ様
DYEAR=1900
DGENRE=
TTITLE0=メイン・タイトル
TTITLE1=三郎のテーマ
TTITLE2=木場のテーマ
TTITLE3=新タイトル
TTITLE4=平吉のテーマ
TTITLE5=三郎のテーマM2
TTITLE6=コミック
TTITLE7=新タイトルM2
TTITLE8=メイン・タイトルM2
TTITLE9=秀次のテーマ
TTITLE10=海のテーマ
TTITLE11=ミツ子のテーマ
TTITLE12=かすみのテーマ
TTITLE13=秀次のテーマM2
TTITLE14=メイン・タイトルM3
EXTD=
EXTT0=
EXTT1=
EXTT2=
EXTT3=
EXTT4=
EXTT5=
EXTT6=
EXTT7=
EXTT8=
EXTT9=
EXTT10=
EXTT11=
EXTT12=
EXTT13=
EXTT14=
PLAYORDER=
